<?xml version="1.0" encoding="UTF-8" standalone="no"?>
<!DOCTYPE svg PUBLIC "-//W3C//DTD SVG 1.1//EN" "http://www.w3.org/Graphics/SVG/1.1/DTD/svg11.dtd">
<svg fill="#fff" width="100%" height="100%" viewBox="0 0 1906 189" version="1.1" xmlns="http://www.w3.org/2000/svg" xmlns:xlink="http://www.w3.org/1999/xlink" xml:space="preserve" xmlns:serif="http://www.serif.com/" style="fill-rule:evenodd;clip-rule:evenodd;stroke-linejoin:round;stroke-miterlimit:2;">
    <g transform="matrix(9.94175,0,0,9.94175,-3865.86,-2888.52)">
        <g transform="matrix(1,0,0,1,388,287.802)">
            <path d="M11.7,2.805C11.891,2.722 12.109,2.722 12.3,2.805C15.998,4.421 19.526,6.403 22.83,8.72C23.03,8.86 23.149,9.09 23.149,9.334C23.149,9.67 22.923,9.967 22.599,10.057C19.168,11.004 15.849,12.316 12.697,13.969L12.694,13.971L12.354,14.151C12.133,14.269 11.868,14.269 11.647,14.151C10.296,13.429 8.912,12.769 7.5,12.174L7.5,11.95C7.5,11.819 7.567,11.702 7.672,11.639C9.181,10.724 10.734,9.883 12.325,9.119C12.584,8.994 12.75,8.731 12.75,8.443C12.75,8.032 12.411,7.693 12,7.693C11.887,7.693 11.776,7.718 11.675,7.767C10.041,8.552 8.446,9.416 6.895,10.356C6.449,10.626 6.137,11.072 6.036,11.584C4.517,11 2.971,10.49 1.402,10.057C1.078,9.967 0.852,9.67 0.852,9.334C0.852,9.09 0.971,8.86 1.171,8.72C4.475,6.403 8.002,4.421 11.7,2.805Z" style="fill-rule:nonzero;"/>
        </g>
        <g transform="matrix(1,0,0,1,388,287.802)">
            <path d="M13.06,15.473C15.516,14.161 18.081,13.063 20.726,12.191C20.86,13.605 20.946,15.034 20.981,16.476C20.988,16.784 20.805,17.067 20.521,17.186C17.686,18.37 14.972,19.824 12.416,21.528C12.165,21.696 11.835,21.696 11.584,21.528C9.028,19.824 6.314,18.37 3.48,17.186C3.195,17.067 3.012,16.784 3.019,16.476C3.054,15.034 3.14,13.606 3.274,12.19C4.192,12.493 5.101,12.823 6,13.18L6,14.45C5.536,14.717 5.249,15.214 5.249,15.75C5.249,16.226 5.476,16.676 5.86,16.958C5.77,17.338 5.638,17.711 5.463,18.068C5.915,18.281 6.364,18.502 6.809,18.729C7.06,18.218 7.245,17.678 7.36,17.121C7.901,16.881 8.251,16.342 8.251,15.75C8.251,15.215 7.964,14.719 7.5,14.451L7.5,13.806C8.668,14.317 9.816,14.873 10.94,15.474C11.602,15.827 12.398,15.827 13.06,15.474L13.06,15.473Z" style="fill-rule:nonzero;"/>
        </g>
        <g transform="matrix(1,0,0,1,388,287.802)">
            <path d="M4.462,19.462C4.882,19.043 5.215,18.572 5.462,18.068C5.915,18.281 6.364,18.502 6.809,18.729C6.482,19.394 6.047,20 5.523,20.523C5.381,20.675 5.182,20.762 4.974,20.762C4.563,20.762 4.224,20.423 4.224,20.012C4.224,19.804 4.311,19.605 4.463,19.463L4.462,19.462Z" style="fill-rule:nonzero;"/>
        </g>
    </g>
    <g transform="matrix(1,0,0,1,-53.6376,-142.588)">
        <g transform="matrix(175.981,0,0,175.981,303.707,280.847)">
            <path d="M0.386,0.02C0.285,0.02 0.209,-0.01 0.159,-0.068C0.119,-0.115 0.093,-0.184 0.083,-0.276C0.078,-0.317 0.076,-0.4 0.076,-0.523C0.076,-0.569 0.077,-0.606 0.079,-0.634C0.081,-0.663 0.083,-0.684 0.087,-0.696C0.096,-0.72 0.11,-0.731 0.131,-0.731C0.161,-0.731 0.176,-0.704 0.176,-0.649L0.176,-0.362C0.176,-0.165 0.245,-0.066 0.383,-0.066C0.513,-0.066 0.578,-0.232 0.578,-0.564L0.578,-0.612C0.578,-0.632 0.578,-0.645 0.578,-0.651C0.578,-0.672 0.581,-0.689 0.588,-0.705C0.597,-0.724 0.611,-0.734 0.629,-0.734C0.661,-0.734 0.678,-0.712 0.678,-0.667C0.678,-0.654 0.678,-0.633 0.678,-0.606L0.678,-0.546C0.678,-0.169 0.581,0.02 0.386,0.02Z" style="fill-rule:nonzero;"/>
        </g>
        <g transform="matrix(175.981,0,0,175.981,433.373,280.847)">
            <path d="M0.442,0.035C0.414,0.035 0.399,0.019 0.395,-0.011L0.381,-0.118C0.377,-0.156 0.375,-0.192 0.375,-0.225C0.375,-0.234 0.375,-0.25 0.376,-0.271C0.377,-0.293 0.378,-0.309 0.378,-0.318C0.378,-0.388 0.365,-0.423 0.339,-0.423C0.302,-0.423 0.268,-0.402 0.234,-0.358C0.204,-0.319 0.181,-0.269 0.164,-0.209C0.163,-0.196 0.162,-0.18 0.16,-0.161C0.158,-0.145 0.157,-0.129 0.157,-0.114C0.157,-0.104 0.158,-0.089 0.16,-0.07C0.162,-0.05 0.163,-0.036 0.163,-0.026C0.163,-0.011 0.158,0.001 0.149,0.01C0.14,0.019 0.129,0.023 0.115,0.023C0.1,0.023 0.089,0.019 0.08,0.01C0.071,0.001 0.067,-0.011 0.067,-0.026C0.067,-0.036 0.066,-0.05 0.064,-0.07C0.062,-0.089 0.061,-0.104 0.061,-0.114C0.061,-0.147 0.063,-0.194 0.068,-0.253C0.072,-0.313 0.075,-0.359 0.075,-0.393C0.075,-0.403 0.074,-0.418 0.073,-0.439C0.072,-0.459 0.071,-0.475 0.071,-0.485C0.071,-0.499 0.076,-0.511 0.085,-0.52C0.094,-0.529 0.106,-0.533 0.12,-0.533C0.15,-0.533 0.166,-0.512 0.169,-0.47L0.17,-0.413C0.225,-0.486 0.281,-0.522 0.339,-0.522C0.391,-0.522 0.427,-0.499 0.448,-0.453C0.462,-0.423 0.469,-0.377 0.471,-0.317L0.471,-0.268L0.47,-0.223C0.47,-0.196 0.474,-0.161 0.481,-0.118C0.488,-0.075 0.491,-0.04 0.491,-0.014C0.491,0.001 0.487,0.012 0.477,0.021C0.468,0.03 0.456,0.035 0.442,0.035Z" style="fill-rule:nonzero;"/>
        </g>
        <g transform="matrix(175.981,0,0,175.981,525.488,280.847)">
            <path d="M0.161,-0.618C0.146,-0.618 0.132,-0.624 0.121,-0.635C0.109,-0.646 0.104,-0.659 0.104,-0.675C0.104,-0.69 0.109,-0.704 0.121,-0.715C0.132,-0.726 0.146,-0.731 0.161,-0.731C0.177,-0.731 0.19,-0.726 0.201,-0.715C0.213,-0.704 0.218,-0.69 0.218,-0.675C0.218,-0.659 0.213,-0.646 0.201,-0.635C0.19,-0.624 0.177,-0.618 0.161,-0.618ZM0.183,-0.222C0.183,-0.202 0.184,-0.173 0.185,-0.134C0.186,-0.095 0.187,-0.066 0.187,-0.046C0.187,-0.032 0.182,-0.02 0.173,-0.011C0.165,-0.002 0.153,0.002 0.139,0.002C0.125,0.002 0.113,-0.002 0.104,-0.011C0.095,-0.02 0.091,-0.032 0.091,-0.046C0.091,-0.066 0.09,-0.095 0.089,-0.134C0.088,-0.173 0.087,-0.202 0.087,-0.222C0.087,-0.252 0.089,-0.29 0.092,-0.336C0.096,-0.382 0.097,-0.42 0.097,-0.451C0.097,-0.465 0.102,-0.477 0.111,-0.486C0.12,-0.495 0.131,-0.5 0.145,-0.5C0.159,-0.5 0.17,-0.495 0.179,-0.486C0.188,-0.477 0.193,-0.465 0.193,-0.451C0.193,-0.42 0.191,-0.382 0.188,-0.336C0.185,-0.29 0.183,-0.252 0.183,-0.222Z" style="fill-rule:nonzero;"/>
        </g>
        <g transform="matrix(175.981,0,0,175.981,574.811,280.847)">
            <path d="M0.293,-0.025C0.292,0.005 0.277,0.02 0.249,0.02C0.225,0.02 0.208,0.006 0.197,-0.022L0.122,-0.221L0.035,-0.445C0.032,-0.453 0.03,-0.461 0.03,-0.467C0.03,-0.481 0.035,-0.492 0.045,-0.501C0.056,-0.511 0.067,-0.516 0.081,-0.516C0.1,-0.516 0.114,-0.506 0.123,-0.486L0.247,-0.145C0.271,-0.197 0.302,-0.272 0.339,-0.371C0.348,-0.397 0.361,-0.434 0.38,-0.481C0.39,-0.502 0.405,-0.513 0.423,-0.513C0.437,-0.513 0.448,-0.508 0.458,-0.499C0.469,-0.489 0.474,-0.478 0.474,-0.465C0.474,-0.452 0.447,-0.383 0.393,-0.256L0.293,-0.025Z" style="fill-rule:nonzero;"/>
        </g>
        <g transform="matrix(175.981,0,0,175.981,660.395,280.847)">
            <path d="M0.296,0.022C0.222,0.022 0.163,0.004 0.117,-0.033C0.067,-0.073 0.042,-0.13 0.042,-0.204C0.042,-0.288 0.063,-0.359 0.104,-0.417C0.149,-0.479 0.208,-0.51 0.283,-0.51C0.337,-0.51 0.381,-0.501 0.415,-0.483C0.457,-0.46 0.478,-0.426 0.478,-0.379C0.478,-0.347 0.46,-0.317 0.423,-0.291C0.407,-0.279 0.372,-0.261 0.319,-0.236L0.133,-0.147C0.151,-0.12 0.174,-0.1 0.201,-0.086C0.228,-0.073 0.26,-0.066 0.296,-0.066C0.318,-0.066 0.345,-0.07 0.375,-0.079C0.413,-0.089 0.438,-0.103 0.449,-0.121C0.46,-0.138 0.472,-0.147 0.485,-0.147C0.496,-0.147 0.506,-0.143 0.515,-0.134C0.524,-0.125 0.529,-0.115 0.529,-0.104C0.529,-0.068 0.5,-0.037 0.441,-0.011C0.392,0.011 0.343,0.022 0.296,0.022ZM0.283,-0.422C0.243,-0.422 0.21,-0.407 0.184,-0.376C0.157,-0.345 0.138,-0.299 0.125,-0.237L0.274,-0.309C0.333,-0.337 0.375,-0.362 0.4,-0.383C0.372,-0.409 0.333,-0.422 0.283,-0.422Z" style="fill-rule:nonzero;"/>
        </g>
        <g transform="matrix(175.981,0,0,175.981,756.807,280.847)">
            <path d="M0.448,-0.361C0.445,-0.32 0.429,-0.3 0.399,-0.3C0.371,-0.3 0.357,-0.316 0.357,-0.348C0.357,-0.354 0.356,-0.366 0.355,-0.382L0.354,-0.423C0.303,-0.417 0.261,-0.403 0.23,-0.38C0.201,-0.359 0.177,-0.327 0.158,-0.284L0.159,-0.017C0.159,0.016 0.143,0.033 0.111,0.033C0.082,0.033 0.068,0.016 0.068,-0.017L0.068,-0.359C0.068,-0.37 0.068,-0.386 0.069,-0.408C0.07,-0.429 0.07,-0.445 0.07,-0.456C0.07,-0.489 0.085,-0.505 0.113,-0.505C0.145,-0.505 0.161,-0.478 0.162,-0.424C0.224,-0.485 0.293,-0.515 0.37,-0.515C0.396,-0.515 0.416,-0.505 0.429,-0.485C0.442,-0.465 0.448,-0.435 0.448,-0.395C0.448,-0.378 0.448,-0.367 0.448,-0.361Z" style="fill-rule:nonzero;"/>
        </g>
        <g transform="matrix(175.981,0,0,175.981,841.36,280.847)">
            <path d="M0.397,-0.376C0.38,-0.376 0.367,-0.382 0.36,-0.394C0.355,-0.403 0.351,-0.42 0.347,-0.447C0.323,-0.441 0.285,-0.429 0.234,-0.413C0.182,-0.392 0.156,-0.366 0.155,-0.335C0.165,-0.332 0.175,-0.329 0.184,-0.328C0.259,-0.314 0.315,-0.296 0.351,-0.272C0.404,-0.238 0.431,-0.189 0.431,-0.124C0.431,-0.071 0.408,-0.031 0.362,-0.004C0.324,0.018 0.276,0.029 0.217,0.029C0.175,0.029 0.134,0.022 0.095,0.008C0.045,-0.01 0.02,-0.036 0.02,-0.068C0.02,-0.081 0.025,-0.093 0.035,-0.103C0.046,-0.112 0.057,-0.117 0.07,-0.117C0.08,-0.117 0.093,-0.109 0.109,-0.094C0.117,-0.086 0.135,-0.08 0.162,-0.075C0.184,-0.071 0.202,-0.069 0.217,-0.069C0.245,-0.069 0.269,-0.073 0.29,-0.079C0.32,-0.089 0.335,-0.104 0.335,-0.124C0.335,-0.168 0.304,-0.198 0.242,-0.214L0.191,-0.225C0.148,-0.235 0.117,-0.246 0.099,-0.258C0.073,-0.277 0.06,-0.304 0.06,-0.341C0.06,-0.409 0.092,-0.457 0.156,-0.486C0.175,-0.495 0.207,-0.506 0.25,-0.518C0.292,-0.53 0.323,-0.54 0.342,-0.549C0.355,-0.555 0.37,-0.558 0.385,-0.558C0.399,-0.558 0.411,-0.553 0.42,-0.544C0.429,-0.535 0.433,-0.523 0.433,-0.508C0.433,-0.499 0.435,-0.485 0.439,-0.467C0.443,-0.449 0.445,-0.435 0.445,-0.425C0.445,-0.411 0.441,-0.399 0.432,-0.39C0.423,-0.381 0.411,-0.376 0.397,-0.376Z" style="fill-rule:nonzero;"/>
        </g>
        <g transform="matrix(175.981,0,0,175.981,927.031,280.847)">
            <path d="M0.161,-0.618C0.146,-0.618 0.132,-0.624 0.121,-0.635C0.109,-0.646 0.104,-0.659 0.104,-0.675C0.104,-0.69 0.109,-0.704 0.121,-0.715C0.132,-0.726 0.146,-0.731 0.161,-0.731C0.177,-0.731 0.19,-0.726 0.201,-0.715C0.213,-0.704 0.218,-0.69 0.218,-0.675C0.218,-0.659 0.213,-0.646 0.201,-0.635C0.19,-0.624 0.177,-0.618 0.161,-0.618ZM0.183,-0.222C0.183,-0.202 0.184,-0.173 0.185,-0.134C0.186,-0.095 0.187,-0.066 0.187,-0.046C0.187,-0.032 0.182,-0.02 0.173,-0.011C0.165,-0.002 0.153,0.002 0.139,0.002C0.125,0.002 0.113,-0.002 0.104,-0.011C0.095,-0.02 0.091,-0.032 0.091,-0.046C0.091,-0.066 0.09,-0.095 0.089,-0.134C0.088,-0.173 0.087,-0.202 0.087,-0.222C0.087,-0.252 0.089,-0.29 0.092,-0.336C0.096,-0.382 0.097,-0.42 0.097,-0.451C0.097,-0.465 0.102,-0.477 0.111,-0.486C0.12,-0.495 0.131,-0.5 0.145,-0.5C0.159,-0.5 0.17,-0.495 0.179,-0.486C0.188,-0.477 0.193,-0.465 0.193,-0.451C0.193,-0.42 0.191,-0.382 0.188,-0.336C0.185,-0.29 0.183,-0.252 0.183,-0.222Z" style="fill-rule:nonzero;"/>
        </g>
        <g transform="matrix(175.981,0,0,175.981,976.354,280.847)">
            <path d="M0.395,-0.416C0.388,-0.416 0.38,-0.416 0.37,-0.417C0.361,-0.418 0.353,-0.418 0.346,-0.418C0.339,-0.418 0.317,-0.416 0.28,-0.411L0.289,-0.122L0.29,-0.076C0.291,-0.004 0.274,0.031 0.239,0.031C0.226,0.031 0.214,0.027 0.205,0.019C0.195,0.01 0.19,-0 0.19,-0.013C0.19,-0.026 0.191,-0.044 0.192,-0.069C0.193,-0.094 0.193,-0.112 0.193,-0.125L0.184,-0.41C0.16,-0.411 0.124,-0.413 0.075,-0.418C0.046,-0.422 0.032,-0.438 0.032,-0.466C0.032,-0.481 0.036,-0.493 0.045,-0.502C0.054,-0.511 0.065,-0.516 0.079,-0.516L0.181,-0.508C0.181,-0.524 0.18,-0.547 0.179,-0.574C0.177,-0.602 0.177,-0.622 0.177,-0.635C0.177,-0.648 0.181,-0.66 0.191,-0.669C0.2,-0.678 0.212,-0.682 0.226,-0.682C0.255,-0.682 0.272,-0.658 0.277,-0.61C0.278,-0.598 0.278,-0.584 0.278,-0.567L0.277,-0.539L0.277,-0.508C0.317,-0.514 0.34,-0.516 0.346,-0.516C0.38,-0.516 0.402,-0.514 0.413,-0.511C0.432,-0.505 0.442,-0.489 0.442,-0.465C0.442,-0.451 0.438,-0.439 0.429,-0.43C0.42,-0.421 0.409,-0.416 0.395,-0.416Z" style="fill-rule:nonzero;"/>
        </g>
        <g transform="matrix(175.981,0,0,175.981,1059.27,280.847)">
            <path d="M0.494,-0.436L0.325,-0.07C0.283,0.019 0.251,0.093 0.229,0.153L0.197,0.248C0.188,0.271 0.174,0.283 0.153,0.283C0.139,0.283 0.127,0.278 0.117,0.269C0.108,0.26 0.103,0.249 0.103,0.236C0.103,0.203 0.138,0.109 0.208,-0.047L0.033,-0.383L0.011,-0.419C0.002,-0.434 -0.002,-0.446 -0.002,-0.457C-0.002,-0.47 0.003,-0.482 0.013,-0.492C0.024,-0.502 0.035,-0.507 0.048,-0.507C0.063,-0.507 0.074,-0.501 0.083,-0.49C0.138,-0.413 0.197,-0.304 0.261,-0.162L0.333,-0.33C0.359,-0.388 0.384,-0.438 0.408,-0.48C0.419,-0.499 0.432,-0.508 0.449,-0.508C0.463,-0.508 0.474,-0.503 0.485,-0.494C0.495,-0.484 0.5,-0.473 0.5,-0.46C0.5,-0.453 0.498,-0.445 0.494,-0.436Z" style="fill-rule:nonzero;"/>
        </g>
        <g transform="matrix(175.981,0,0,175.981,1203.46,280.847)">
            <path d="M0.251,0.029C0.196,0.029 0.149,0.009 0.11,-0.032C0.066,-0.077 0.043,-0.137 0.041,-0.213C0.039,-0.286 0.057,-0.351 0.096,-0.407C0.142,-0.473 0.205,-0.506 0.287,-0.506C0.352,-0.506 0.401,-0.477 0.435,-0.417C0.461,-0.369 0.474,-0.311 0.473,-0.243C0.472,-0.171 0.453,-0.109 0.417,-0.058C0.375,-0 0.32,0.029 0.251,0.029ZM0.28,-0.407C0.232,-0.408 0.195,-0.385 0.168,-0.339C0.147,-0.302 0.137,-0.26 0.137,-0.213C0.137,-0.166 0.15,-0.129 0.175,-0.103C0.197,-0.081 0.222,-0.07 0.251,-0.07C0.285,-0.07 0.314,-0.082 0.338,-0.107C0.366,-0.134 0.381,-0.171 0.382,-0.218C0.387,-0.344 0.353,-0.407 0.28,-0.407Z" style="fill-rule:nonzero;"/>
        </g>
        <g transform="matrix(175.981,0,0,175.981,1296.01,280.847)">
            <path d="M0.396,-0.687C0.317,-0.687 0.273,-0.632 0.264,-0.522L0.262,-0.492C0.318,-0.496 0.353,-0.498 0.37,-0.498C0.421,-0.498 0.447,-0.482 0.447,-0.449C0.447,-0.425 0.435,-0.411 0.409,-0.407C0.398,-0.405 0.385,-0.404 0.37,-0.405C0.356,-0.405 0.318,-0.403 0.258,-0.398L0.254,-0.287C0.254,-0.266 0.255,-0.236 0.256,-0.196C0.257,-0.155 0.258,-0.125 0.258,-0.105C0.258,-0.044 0.254,0.005 0.247,0.039C0.242,0.065 0.226,0.078 0.202,0.078C0.188,0.078 0.177,0.074 0.167,0.065C0.158,0.057 0.153,0.046 0.153,0.033C0.153,0.03 0.154,0.027 0.154,0.023C0.161,-0.019 0.165,-0.065 0.165,-0.115L0.163,-0.249L0.163,-0.39C0.122,-0.387 0.097,-0.385 0.086,-0.385C0.053,-0.385 0.037,-0.401 0.037,-0.433C0.037,-0.465 0.065,-0.482 0.122,-0.483L0.169,-0.485C0.17,-0.503 0.172,-0.528 0.176,-0.559C0.185,-0.631 0.203,-0.685 0.231,-0.719C0.265,-0.76 0.318,-0.781 0.39,-0.781C0.436,-0.781 0.459,-0.765 0.459,-0.733C0.459,-0.702 0.438,-0.687 0.396,-0.687Z" style="fill-rule:nonzero;"/>
        </g>
        <g transform="matrix(175.981,0,0,175.981,1438.05,280.847)">
            <path d="M0.793,0.041C0.776,0.041 0.761,0.031 0.75,0.013C0.74,-0.002 0.731,-0.028 0.724,-0.065L0.706,-0.149C0.693,-0.201 0.672,-0.316 0.643,-0.494L0.545,-0.199L0.516,-0.106C0.504,-0.07 0.492,-0.04 0.479,-0.016C0.466,0.009 0.447,0.021 0.424,0.021C0.405,0.021 0.39,0.011 0.379,-0.01C0.372,-0.024 0.365,-0.041 0.359,-0.063L0.345,-0.117C0.312,-0.232 0.283,-0.355 0.258,-0.486L0.241,-0.398L0.178,-0.141C0.175,-0.11 0.167,-0.066 0.153,-0.006C0.144,0.019 0.127,0.032 0.105,0.032C0.089,0.032 0.076,0.026 0.067,0.015C0.059,0.005 0.055,-0.007 0.055,-0.021C0.055,-0.076 0.066,-0.143 0.088,-0.222L0.142,-0.418L0.17,-0.572C0.185,-0.644 0.2,-0.691 0.216,-0.713C0.229,-0.732 0.245,-0.742 0.264,-0.742C0.285,-0.742 0.301,-0.73 0.312,-0.706C0.324,-0.677 0.338,-0.618 0.353,-0.528C0.37,-0.421 0.397,-0.305 0.433,-0.181C0.481,-0.306 0.523,-0.437 0.558,-0.572L0.573,-0.644C0.579,-0.672 0.586,-0.695 0.596,-0.713C0.608,-0.737 0.626,-0.749 0.648,-0.749C0.676,-0.749 0.697,-0.722 0.712,-0.668C0.717,-0.649 0.723,-0.611 0.731,-0.553C0.75,-0.406 0.774,-0.28 0.803,-0.176L0.827,-0.092C0.839,-0.047 0.845,-0.019 0.845,-0.009C0.845,0.005 0.84,0.017 0.829,0.026C0.819,0.036 0.807,0.041 0.793,0.041Z" style="fill-rule:nonzero;"/>
        </g>
        <g transform="matrix(175.981,0,0,175.981,1593.41,280.847)">
            <path d="M0.161,-0.618C0.146,-0.618 0.132,-0.624 0.121,-0.635C0.109,-0.646 0.104,-0.659 0.104,-0.675C0.104,-0.69 0.109,-0.704 0.121,-0.715C0.132,-0.726 0.146,-0.731 0.161,-0.731C0.177,-0.731 0.19,-0.726 0.201,-0.715C0.213,-0.704 0.218,-0.69 0.218,-0.675C0.218,-0.659 0.213,-0.646 0.201,-0.635C0.19,-0.624 0.177,-0.618 0.161,-0.618ZM0.183,-0.222C0.183,-0.202 0.184,-0.173 0.185,-0.134C0.186,-0.095 0.187,-0.066 0.187,-0.046C0.187,-0.032 0.182,-0.02 0.173,-0.011C0.165,-0.002 0.153,0.002 0.139,0.002C0.125,0.002 0.113,-0.002 0.104,-0.011C0.095,-0.02 0.091,-0.032 0.091,-0.046C0.091,-0.066 0.09,-0.095 0.089,-0.134C0.088,-0.173 0.087,-0.202 0.087,-0.222C0.087,-0.252 0.089,-0.29 0.092,-0.336C0.096,-0.382 0.097,-0.42 0.097,-0.451C0.097,-0.465 0.102,-0.477 0.111,-0.486C0.12,-0.495 0.131,-0.5 0.145,-0.5C0.159,-0.5 0.17,-0.495 0.179,-0.486C0.188,-0.477 0.193,-0.465 0.193,-0.451C0.193,-0.42 0.191,-0.382 0.188,-0.336C0.185,-0.29 0.183,-0.252 0.183,-0.222Z" style="fill-rule:nonzero;"/>
        </g>
        <g transform="matrix(175.981,0,0,175.981,1642.73,280.847)">
            <path d="M0.47,-0.21L0.458,-0.046C0.457,0.019 0.45,0.072 0.438,0.113C0.424,0.166 0.4,0.205 0.368,0.23C0.329,0.26 0.273,0.275 0.199,0.275C0.155,0.275 0.119,0.272 0.09,0.267C0.049,0.258 0.028,0.242 0.028,0.216C0.028,0.187 0.042,0.172 0.071,0.172C0.083,0.172 0.102,0.175 0.129,0.181C0.157,0.187 0.187,0.189 0.22,0.188C0.283,0.188 0.326,0.157 0.35,0.098C0.365,0.058 0.374,-0.003 0.375,-0.085C0.357,-0.053 0.336,-0.028 0.312,-0.012C0.288,0.004 0.26,0.012 0.229,0.012C0.17,0.012 0.122,-0.008 0.085,-0.048C0.048,-0.088 0.029,-0.14 0.029,-0.205C0.029,-0.292 0.055,-0.363 0.105,-0.417C0.157,-0.472 0.228,-0.5 0.318,-0.5C0.348,-0.5 0.374,-0.496 0.394,-0.488C0.415,-0.48 0.43,-0.469 0.441,-0.453C0.476,-0.452 0.493,-0.433 0.493,-0.395C0.493,-0.372 0.49,-0.341 0.483,-0.302C0.475,-0.257 0.471,-0.227 0.47,-0.21ZM0.313,-0.422C0.251,-0.422 0.203,-0.401 0.169,-0.358C0.139,-0.319 0.124,-0.271 0.124,-0.211C0.124,-0.164 0.133,-0.129 0.151,-0.105C0.169,-0.081 0.196,-0.069 0.231,-0.069C0.264,-0.069 0.296,-0.088 0.327,-0.125C0.355,-0.159 0.371,-0.193 0.375,-0.227C0.382,-0.262 0.389,-0.317 0.397,-0.392C0.384,-0.402 0.37,-0.41 0.356,-0.415C0.342,-0.419 0.328,-0.422 0.313,-0.422Z" style="fill-rule:nonzero;"/>
        </g>
        <g transform="matrix(175.981,0,0,175.981,1736.13,280.847)">
            <path d="M0.466,-0.285C0.466,-0.262 0.466,-0.227 0.467,-0.18C0.467,-0.133 0.467,-0.098 0.467,-0.074C0.467,-0.067 0.468,-0.056 0.469,-0.042C0.47,-0.027 0.471,-0.016 0.471,-0.009C0.471,0.005 0.466,0.017 0.457,0.026C0.447,0.035 0.436,0.039 0.422,0.039C0.397,0.039 0.381,0.024 0.374,-0.007C0.333,0.014 0.286,0.024 0.233,0.024C0.191,0.024 0.155,0.015 0.127,-0.004C0.097,-0.025 0.078,-0.055 0.072,-0.095C0.06,-0.181 0.053,-0.258 0.053,-0.326C0.053,-0.37 0.058,-0.421 0.068,-0.478C0.072,-0.506 0.088,-0.521 0.114,-0.521C0.128,-0.521 0.14,-0.516 0.149,-0.507C0.159,-0.498 0.164,-0.487 0.164,-0.473C0.164,-0.458 0.161,-0.434 0.156,-0.401C0.152,-0.368 0.149,-0.343 0.149,-0.326C0.149,-0.271 0.151,-0.225 0.155,-0.186C0.158,-0.147 0.164,-0.116 0.171,-0.093C0.182,-0.087 0.192,-0.082 0.203,-0.079C0.213,-0.076 0.223,-0.075 0.233,-0.075C0.277,-0.075 0.323,-0.082 0.372,-0.096L0.371,-0.195L0.37,-0.29C0.37,-0.36 0.373,-0.421 0.379,-0.473C0.383,-0.503 0.399,-0.518 0.427,-0.518C0.441,-0.518 0.452,-0.513 0.462,-0.504C0.471,-0.495 0.476,-0.483 0.475,-0.47L0.466,-0.285Z" style="fill-rule:nonzero;"/>
        </g>
        <g transform="matrix(175.981,0,0,175.981,1827.65,280.847)">
            <path d="M0.296,0.022C0.222,0.022 0.163,0.004 0.117,-0.033C0.067,-0.073 0.042,-0.13 0.042,-0.204C0.042,-0.288 0.063,-0.359 0.104,-0.417C0.149,-0.479 0.208,-0.51 0.283,-0.51C0.337,-0.51 0.381,-0.501 0.415,-0.483C0.457,-0.46 0.478,-0.426 0.478,-0.379C0.478,-0.347 0.46,-0.317 0.423,-0.291C0.407,-0.279 0.372,-0.261 0.319,-0.236L0.133,-0.147C0.151,-0.12 0.174,-0.1 0.201,-0.086C0.228,-0.073 0.26,-0.066 0.296,-0.066C0.318,-0.066 0.345,-0.07 0.375,-0.079C0.413,-0.089 0.438,-0.103 0.449,-0.121C0.46,-0.138 0.472,-0.147 0.485,-0.147C0.496,-0.147 0.506,-0.143 0.515,-0.134C0.524,-0.125 0.529,-0.115 0.529,-0.104C0.529,-0.068 0.5,-0.037 0.441,-0.011C0.392,0.011 0.343,0.022 0.296,0.022ZM0.283,-0.422C0.243,-0.422 0.21,-0.407 0.184,-0.376C0.157,-0.345 0.138,-0.299 0.125,-0.237L0.274,-0.309C0.333,-0.337 0.375,-0.362 0.4,-0.383C0.372,-0.409 0.333,-0.422 0.283,-0.422Z" style="fill-rule:nonzero;"/>
        </g>
        <g transform="matrix(175.981,0,0,175.981,1924.06,280.847)">
            <path d="M0.192,-0.384L0.185,-0.141C0.185,-0.115 0.183,-0.078 0.181,-0.028C0.177,0.005 0.161,0.021 0.133,0.021C0.101,0.021 0.085,0.004 0.085,-0.029C0.085,-0.068 0.087,-0.127 0.09,-0.206C0.094,-0.285 0.096,-0.344 0.096,-0.384C0.096,-0.435 0.097,-0.494 0.098,-0.56C0.1,-0.627 0.101,-0.685 0.101,-0.737C0.101,-0.769 0.117,-0.786 0.148,-0.786C0.181,-0.786 0.197,-0.769 0.197,-0.737C0.197,-0.685 0.196,-0.627 0.194,-0.56C0.193,-0.494 0.192,-0.435 0.192,-0.384Z" style="fill-rule:nonzero;"/>
        </g>
    </g>
</svg>
